#!OML:ASF E:\emotionWalksFemale\Project 1\Capture day 1\Session 1\Female1.ASF
:FULLY-SPECIFIED
:DEGREES
2794
root 9.72484 15.2836 -5.03805 -177.833 -182.66 -179.233
lowerback 5.94111 -3.52954 -3.3209
upperback -5.28438 -5.10637 -0.343574
thorax -8.65654 -2.30044 2.16065
lowerneck -5.58526 0.110822 -3.53744
upperneck 19.1984 -0.522401 5.86811
head 6.7691 -0.0382682 2.44496
rclavicle -9.0447e-014 -1.07344e-014
rhumerus -49.2782 -8.2035 -62.6197
rradius 36.8552
rwrist 20.2658
rhand 161.652 -242.959
rfingers 7.12502
rthumb -172.065 -807.21
lclavicle -9.0447e-014 -1.07344e-014
lhumerus -40.2704 12.5012 75.348
lradius 44.2115
lwrist -9.87769
lhand -22.5633 -38.5118
lfingers 7.12502
lthumb 3.86478 -8.56706
rfemur -26.2633 11.564 23.0068
rtibia 27.4906
rfoot -7.71495 -25.0485
rtoes 11.3212
lfemur 15.9107 -5.21392 -25.467
ltibia 22.0127
lfoot -1.53536 -9.94007
ltoes -4.2961
2795
root 9.70608 15.2976 -4.93406 -177.722 -182.739 -179.28
lowerback 5.8925 -3.5756 -3.29486
upperback -5.421 -5.1684 -0.343258
thorax -8.77602 -2.32791 2.15675
lowerneck -5.41391 0.142154 -3.4617
upperneck 19.133 -0.491678 5.87467
head 6.71608 -0.0205595 2.43471
rclavicle -7.15625e-015 -1.19271e-014
rhumerus -49.5597 -8.47249 -62.0408
rradius 36.5883
rwrist 21.0285
rhand 161.624 -241.176
rfingers 7.12502
rthumb -172.092 -808.992
lclavicle -7.15625e-015 -1.19271e-014
lhumerus -40.6645 12.3464 75.3137
lradius 44.5032
lwrist -10.1111
lhand -22.4729 -37.9268
lfingers 7.12502
lthumb 3.95211 -7.98366
rfemur -26.1011 11.2866 23.2816
rtibia 27.7465
rfoot -7.58715 -24.8009
rtoes 12.2197
lfemur 15.6946 -5.19194 -25.174
ltibia 22.5664
lfoot -0.137822 -10.1674
ltoes -4.08741
2796
root 9.68645 15.3076 -4.83056 -177.654 -182.816 -179.287
lowerback 5.81768 -3.62307 -3.28125
upperback -5.40017 -5.22863 -0.366006
thorax -8.70926 -2.36131 2.12602
lowerneck -5.7474 0.167827 -3.42584
upperneck 19.1794 -0.463043 5.92099
head 6.78862 0.00485198 2.44809
rclavicle -7.61842e-014 -3.53837e-014
rhumerus -49.5191 -8.44275 -61.9612
rradius 36.6012
rwrist 21.2207
rhand 161.646 -240.629
rfingers 7.12502
rthumb -172.071 -809.54
lclavicle -7.61842e-014 -3.53837e-014
lhumerus -40.4874 12.2106 75.3814
lradius 44.4041
lwrist -10.0714
lhand -22.3474 -38.0938
lfingers 7.12502
lthumb 4.07329 -8.15294
rfemur -25.8684 11.0061 23.5241
rtibia 27.9814
rfoot -7.66325 -24.4549
rtoes 13.4579
lfemur 15.4374 -5.20419 -24.9399
ltibia 23.2241
lfoot 0.98747 -10.1059
ltoes -4.59049
2797
root 9.66715 15.3123 -4.72855 -177.626 -182.827 -179.313
lowerback 5.74911 -3.69004 -3.27757
upperback -5.37781 -5.31259 -0.342525
thorax -8.63799 -2.40418 2.15244
lowerneck -5.96711 0.239144 -3.50135
upperneck 19.2248 -0.364815 5.99343
head 6.83699 0.0562691 2.49356
rclavicle 5.37961e-014 1.03368e-014
rhumerus -49.3489 -8.28301 -61.9551
rradius 36.7297
rwrist 21.3064
rhand 161.976 -241.364
rfingers 7.12502
rthumb -171.752 -808.817
lclavicle 5.37961e-014 1.03368e-014
lhumerus -40.2652 12.2138 75.4453
lradius 44.1706
lwrist -9.93927
lhand -22.2147 -38.4308
lfingers 7.12502
lthumb 4.20144 -8.49244
rfemur -25.5834 10.9631 23.7673
rtibia 28.1799
rfoot -8.01598 -24.3012
rtoes 15.6807
lfemur 15.1701 -5.05559 -24.6566
ltibia 23.9786
lfoot 1.63548 -9.86919
ltoes -9.56933
2798
root 9.64671 15.316 -4.62443 -177.649 -182.715 -179.332
lowerback 5.67828 -3.71429 -3.33904
upperback -5.361 -5.34599 -0.324214
thorax -8.56906 -2.41838 2.20308
lowerneck -6.05952 0.272294 -3.44614
upperneck 19.1927 -0.306971 5.90814
head 6.84039 0.0821315 2.46083
rclavicle 3.48867e-014 1.35174e-014
rhumerus -49.3299 -8.16349 -61.8107
rradius 36.8508
rwrist 21.3889
rhand 161.998 -241.932
rfingers 7.12502
rthumb -171.732 -808.25
lclavicle 3.48867e-014 1.35174e-014
lhumerus -40.092 12.1392 75.4727
lradius 43.8109
lwrist -9.89573
lhand -22.421 -38.5917
lfingers 7.12502
lthumb 4.00221 -8.64954
rfemur -25.241 11.1223 24.0024
rtibia 28.3662
rfoot -8.61124 -24.2604
rtoes 18.0121
lfemur 14.9757 -4.74936 -24.3686
ltibia 24.8182
lfoot 2.35081 -9.79061
ltoes -12.5626
2799
root 9.6261 15.3175 -4.52139 -177.73 -182.67 -179.453
lowerback 5.7312 -3.71862 -3.32239
upperback -5.38092 -5.35285 -0.319331
thorax -8.62251 -2.42071 2.205
lowerneck -6.09469 0.237034 -3.21346
upperneck 19.2024 -0.350525 5.71503
head 6.85274 0.0621571 2.35581
rclavicle -1.45361e-014 7.15625e-015
rhumerus -49.4658 -8.17259 -61.599
rradius 36.8444
rwrist 21.3443
rhand 161.555 -242.037
rfingers 7.12502
rthumb -172.159 -808.128
lclavicle -1.45361e-014 7.15625e-015
lhumerus -40.159 11.965 75.4141
lradius 43.7247
lwrist -9.83144
lhand -22.0633 -39.0088
lfingers 7.12502
lthumb 4.34761 -9.07347
rfemur -24.8086 11.1506 24.3853
rtibia 28.5094
rfoot -8.8257 -24.1697
rtoes 18.8214
lfemur 14.8201 -4.52581 -23.9769
ltibia 25.7374
lfoot 3.46812 -9.90915
ltoes -9.99985
2800
root 9.60706 15.321 -4.4177 -177.768 -182.709 -179.726
lowerback 5.72299 -3.73415 -3.10923
upperback -5.46544 -5.35225 -0.27797
thorax -8.72437 -2.42873 2.13447
lowerneck -5.8819 0.225986 -3.20629
upperneck 19.1486 -0.388658 5.81718
head 6.79922 0.0491055 2.38293
rclavicle -1.15792e-013 -3.57812e-014
rhumerus -49.6724 -7.88144 -61.6903
rradius 36.9188
rwrist 20.488
rhand 161.231 -242.171
rfingers 7.12502
rthumb -172.472 -807.983
lclavicle -1.15792e-013 -3.57812e-014
lhumerus -40.846 11.996 75.2683
lradius 44.6301
lwrist -9.97684
lhand -21.2158 -38.8469
lfingers 7.12502
lthumb 5.16595 -8.9299
rfemur -24.3558 11.1532 24.91
rtibia 28.5687
rfoot -8.64945 -24.089
rtoes 18.6665
lfemur 14.5178 -4.28072 -23.3754
ltibia 26.7745
lfoot 4.89434 -10.2672
ltoes -7.29078
